<svg id="zerobased" xmlns="http://www.w3.org/2000/svg" width="3780" height="1417" viewBox="0 0 3780 1417">
  <metadata><?xpacket begin="﻿" id="W5M0MpCehiHzreSzNTczkc9d"?>
<x:xmpmeta xmlns:x="adobe:ns:meta/" x:xmptk="Adobe XMP Core 5.6-c140 79.160451, 2017/05/06-01:08:21        ">
   <rdf:RDF xmlns:rdf="http://www.w3.org/1999/02/22-rdf-syntax-ns#">
      <rdf:Description rdf:about=""/>
   </rdf:RDF>
</x:xmpmeta>
                                                                                                    
                                                                                                    
                                                                                                    
                                                                                                    
                                                                                                    
                                                                                                    
                                                                                                    
                                                                                                    
                                                                                                    
                                                                                                    
                                                                                                    
                                                                                                    
                                                                                                    
                                                                                                    
                                                                                                    
                                                                                                    
                                                                                                    
                                                                                                    
                                                                                                    
                                                                                                    
                           
<?xpacket end="w"?></metadata>
<defs>
    <style>
      .cls-1 {
        fill-rule: evenodd;
      }
    </style>
  </defs>
  <path id="zerobased-2" data-name="zerobased" class="cls-1" d="M602.359,663.7V609.355H320.78V729.434h72.834L397.19,682.9h86.165L315.9,905.484v55.972H608.212V841.7H535.7l-3.9,46.859H433.607ZM896.132,956.574q34.628-11.715,56.413-28.962l-25.687-58.574q-24.714,13.667-45.521,20.013T828.988,895.4q-35.444,0-56.088-22.453t-23.248-57.274l0.65-1.952H960.349V761.976q0-73.22-39.343-116.174T810.455,602.847q-72.511-.319-115.591,50.44t-43.082,129.19v13.016q0,75.172,45.521,123.984t121.606,48.812Q861.5,968.289,896.132,956.574Zm-42.92-262.448q14.143,18.062,14.144,48.325v8.46h-116.4l-0.976-1.627q3.575-32.864,18.859-53.042t41.619-20.176Q839.063,676.066,853.212,694.126Zm159.158,267.33h185.99V904.508l-45.52-9.763V723.577a52.5,52.5,0,0,1,20.81-23.105q13.65-8.13,34.46-8.135l39.02,0.976,10.08-86.561a97.4,97.4,0,0,0-13.82-2.766,116.242,116.242,0,0,0-15.77-1.139q-25.68,0-45.19,15.3t-31.87,42.629l-4.23-51.416H1007.5v57.274l50.39,9.762V894.745l-45.52,9.763v56.948Zm266.62-172.471q0,79.4,44.06,129.353t122.42,49.951q77.385,0,121.44-49.951t44.06-129.353v-6.834q0-79.076-44.06-129.19t-122.09-50.114q-77.715,0-121.77,50.277t-44.06,129.027v6.834Zm94.95-6.834q0-46.86,16.91-76.472,16.89-29.608,53.97-29.613,37.065,0,54.3,29.613t17.23,76.472v6.834q0,47.837-17.07,77.124T1445.47,895.4q-37.725,0-54.62-29.125-16.92-29.12-16.91-77.286v-6.834Zm618.43,6.183q0-84.277-35.11-134.885t-102.1-50.6q-27.645,0-48.94,11.39t-36.58,32.541V453.807H1624.63V511.08l50.4,9.762V961.456h81.93l6.83-43.281q15.615,24.407,38.37,37.26t53.65,12.854q66.33,0,101.45-47.185t35.11-125.936v-6.834Zm-94.62,6.834q0,47.516-14.63,73.381t-51.37,25.871q-22.44,0-37.88-8.461a59.871,59.871,0,0,1-24.23-24.731V712.512q8.79-17.244,24.07-26.521t37.39-9.274q36.4,0,51.53,30.1t15.12,81.516v6.834Zm472.12,166.288V904.508l-28.94-3.905a109.2,109.2,0,0,1-1.14-13.668q-0.165-7.153-.16-15.294V726.18q0-59.223-40.81-91.279t-106.16-32.054q-39.675,0-73.32,12.041T2059.68,644.5l-0.33,78.1h71.54l6.17-37.748q7.815-5.2,20.49-8.949a102.4,102.4,0,0,1,28.94-3.742q28.605,0,43.24,13.993t14.63,39.375v34.494h-48.44q-76.755,0-116.41,27.01-39.675,27.014-39.67,76.472,0,48.493,30.4,76.636t82.11,28.148q31.2,0,55.43-12.04a130.552,130.552,0,0,0,41.13-31.565,143.613,143.613,0,0,0,4.56,18.711,171.994,171.994,0,0,0,6.82,18.061h109.58ZM2146,887.912q-11.535-10.083-11.54-27.986,0-19.845,15.61-34.006t45.85-14.156h48.44v53.694q-9.75,14-27.31,23.267A82.245,82.245,0,0,1,2178.03,898Q2157.555,898,2146,887.912Zm542.19-245.039q-20.8-17.244-57.39-28.311a266.515,266.515,0,0,0-77.55-11.064q-67.3,0-103.72,32.053t-36.42,76.311q0,42.954,31.71,67.849,31.695,24.894,93.8,37.585,40.965,8.787,56.25,20.176t15.29,27.01q0,17.9-15.12,28.311t-44.06,10.413a134.026,134.026,0,0,1-30.57-3.417q-14.625-3.417-23.08-10.576l-13.01-45.883h-66.33l0.98,79.076a190.519,190.519,0,0,0,60.31,34.006q33.975,11.875,74.62,11.877,66.66,0,107.47-30.1t40.8-77.611q0-44.251-31.54-69.477t-96.89-38.236q-41.94-8.13-55.93-18.711t-13.98-26.522q0-16.917,14.63-28.148t39.67-11.227a98.031,98.031,0,0,1,32.68,5.206q14.79,5.209,24.55,13.017l10.08,43.931h63.73Zm302.23,313.7q34.62-11.715,56.41-28.962l-25.69-58.574q-24.7,13.667-45.52,20.013t-52.35,6.345q-35.445,0-56.08-22.453-20.655-22.455-23.25-57.274l0.65-1.952h210.04V761.976q0-73.22-39.34-116.174t-110.55-42.955q-72.51-.319-115.59,50.44t-43.08,129.19v13.016q0,75.172,45.52,123.984t121.6,48.812Q2955.79,968.289,2990.42,956.574ZM2947.5,694.126q14.145,18.062,14.14,48.325v8.46h-116.4l-0.98-1.627q3.585-32.864,18.86-53.042t41.62-20.176Q2933.345,676.066,2947.5,694.126Zm388.06,267.33h127.79V904.508l-45.52-9.763V453.807H3272.16V511.08l50.72,9.762V647.1q-15.93-21.15-37.06-32.705-21.15-11.547-47.48-11.552-65.355,0-101.44,51.09t-36.09,134.4v6.834q0,78.1,35.92,125.611t100.96,47.51q28.935,0,51.54-12.691,22.59-12.692,39.18-37.1ZM3195.75,788.334q0-49.788,15.93-80.7t50.72-30.914q20.49,0,35.61,9.274t24.87,26.2V861.553a67.437,67.437,0,0,1-25.03,24.406q-15.3,8.466-36.1,8.461-35.115,0-50.56-26.521t-15.44-72.731v-6.834Z"/>
  <path id="Top_bar" data-name="Top bar" class="cls-1" d="M320.594,453.937h1246.6V511.25H320.594V453.937Zm1507.606-.008H3214.63v57.315H1828.2V453.929Z"/>
</svg>
