<svg id="zerobased" xmlns="http://www.w3.org/2000/svg" width="3384" height="1417" viewBox="0 0 3384 1417">
  <style>
  .cls-1 {
    fill-rule: evenodd;
  }
  .medium {
    display: none;
  }
  .small {
    display: none;
  }
  @media all and (max-width: 979px) {
    .large { display: none; }
    .medium { display: inherit; }
    .small { display: none; }
  }
  @media all and (max-width: 640px) {
    .large { display: none; }
    .medium { display: none; }
    .small { display: inherit; }
  }
  </style>
  <path id="zerobased-text" data-name="zerobased" class="large cls-1" d="M404.077,663.257v-54.31H122.446v120h72.847l3.577-46.5h86.18L117.568,904.887v55.936H409.93V841.146H337.409l-3.9,46.83H235.293ZM697.9,955.945Q732.538,944.238,754.326,927l-25.691-58.537q-24.719,13.659-45.529,20t-52.359,6.342q-35.449,0-56.1-22.44T551.4,815.13l0.651-1.952H762.131V761.47q0-73.172-39.35-116.1T612.21,602.443q-72.524-.319-115.611,50.407T453.508,781.958v13.009q0,75.123,45.53,123.9t121.628,48.781Q663.266,967.652,697.9,955.945ZM654.975,693.664q14.146,18.05,14.147,48.294v8.455H552.7l-0.976-1.626q3.576-32.844,18.863-53.009t41.626-20.163Q640.824,675.615,654.975,693.664Zm159.19,267.159H1000.18V903.912l-45.525-9.757V723.1a52.556,52.556,0,0,1,20.813-23.089q13.659-8.125,34.472-8.131l39.03,0.976,10.08-86.5a97.706,97.706,0,0,0-13.82-2.765,116.539,116.539,0,0,0-15.78-1.138q-25.695,0-45.2,15.285t-31.87,42.6l-4.228-51.383H809.287v57.237l50.407,9.756V894.155l-45.529,9.757v56.911ZM1080.84,788.462q0,79.355,44.06,129.271t122.44,49.919q77.4,0,121.47-49.919t44.06-129.271v-6.829q0-79.026-44.06-129.108t-122.12-50.082q-77.73,0-121.79,50.245t-44.06,128.945v6.829Zm94.96-6.829q0-46.83,16.91-76.424t53.98-29.594q37.08,0,54.31,29.594t17.24,76.424v6.829q0,47.806-17.08,77.075t-53.82,29.269q-37.725,0-54.63-29.107t-16.91-77.237v-6.829Zm618.54,6.179q0-84.223-35.12-134.8t-102.11-50.57q-27.645,0-48.95,11.382t-36.58,32.521V453.5H1426.53v57.236l50.41,9.757V960.823h81.95l6.83-43.253q15.615,24.391,38.38,37.237t53.66,12.845q66.33,0,101.46-47.155t35.12-125.856v-6.829Zm-94.63,6.829q0,47.486-14.64,73.335-14.625,25.854-51.38,25.854-22.44,0-37.89-8.455a59.774,59.774,0,0,1-24.22-24.716V712.038q8.775-17.234,24.06-26.5t37.4-9.269q36.42,0,51.55,30.082t15.12,81.465v6.829Zm472.2,166.182V903.912l-28.94-3.9a109.05,109.05,0,0,1-1.14-13.659q-0.165-7.149-.16-15.285V725.7q0-59.185-40.82-91.221t-106.18-32.033q-39.675,0-73.33,12.033t-59.68,29.594l-0.32,78.05h71.54l6.18-37.724q7.8-5.2,20.49-8.944a102.532,102.532,0,0,1,28.94-3.739q28.62,0,43.26,13.983,14.625,13.987,14.63,39.351v34.472h-48.46q-76.755,0-116.42,26.992t-39.68,76.424q0,48.462,30.41,76.587t82.12,28.13q31.215,0,55.44-12.032a130.57,130.57,0,0,0,41.14-31.546,141.822,141.822,0,0,0,4.56,18.7,169.653,169.653,0,0,0,6.83,18.049h109.59ZM1948,887.326q-11.535-10.077-11.54-27.968,0-19.833,15.61-33.984t45.85-14.147h48.46v53.659q-9.75,13.988-27.32,23.253a82.259,82.259,0,0,1-39.02,9.268Q1959.55,897.407,1948,887.326Zm542.29-244.882q-20.82-17.233-57.4-28.293a266.8,266.8,0,0,0-77.56-11.057q-67.32,0-103.74,32.033-36.435,32.036-36.43,76.261,0,42.927,31.71,67.806t93.82,37.562q40.98,8.78,56.27,20.163,15.27,11.386,15.28,26.992,0,17.889-15.12,28.293t-44.07,10.407a134.2,134.2,0,0,1-30.57-3.415q-14.625-3.414-23.09-10.569l-13.01-45.855h-66.34l0.98,79.026a190.573,190.573,0,0,0,60.32,33.984q33.99,11.868,74.64,11.87,66.66,0,107.48-30.081t40.81-77.563q0-44.223-31.54-69.432t-96.91-38.212q-41.955-8.124-55.94-18.7t-13.98-26.5q0-16.9,14.63-28.13t39.68-11.22a98.082,98.082,0,0,1,32.68,5.2q14.79,5.207,24.55,13.009l10.08,43.9h63.75Zm302.28,313.5Q2827.205,944.238,2849,927l-25.7-58.537q-24.72,13.659-45.53,20t-52.35,6.342q-35.46,0-56.1-22.44-20.655-22.438-23.25-57.236l0.65-1.952H2856.8V761.47q0-73.172-39.35-116.1t-110.57-42.928q-72.525-.319-115.61,50.407t-43.09,129.108v13.009q0,75.123,45.53,123.9t121.62,48.781Q2757.93,967.652,2792.57,955.945Zm-42.93-262.281q14.16,18.05,14.15,48.294v8.455H2647.37l-0.98-1.626q3.57-32.844,18.86-53.009t41.63-20.163Q2735.485,675.615,2749.64,693.664Zm388.14,267.159h127.81V903.912l-45.53-9.757V453.5H3074.37v57.236l50.73,9.757v126.18q-15.945-21.135-37.08-32.683t-47.48-11.545q-65.355,0-101.46,51.058t-36.1,134.311v6.829q0,78.051,35.94,125.531,35.925,47.485,100.97,47.48,28.95,0,51.55-12.683t39.19-37.074ZM2997.94,787.812q0-49.757,15.94-80.652t50.73-30.895q20.49,0,35.61,9.269t24.88,26.179V860.984a67.524,67.524,0,0,1-25.04,24.391q-15.3,8.46-36.1,8.455-35.13,0-50.57-26.5t-15.45-72.685v-6.829Z"/>
  <path id="zerobased-bar" data-name="Top bar" class="large cls-1" d="M122.594,453.938h1246.6V511.25H122.594V453.938Zm1507.606-.009H3016.63v57.315H1630.2V453.929Z"/>

  <path id="zbsd-text" data-name="zbsd" class="medium cls-1" d="M1057.6,620.7V514.747H508.325V748.866H650.4l6.976-90.729h168.08L498.811,1092.11v109.13h570.2V967.757H927.572l-7.611,91.363H728.414Zm767.45,243q0-164.317-68.5-262.987-68.49-98.649-199.16-98.659-53.91,0-95.45,22.206t-71.36,63.447V211.472H1107.7V323.138l98.31,19.034V1201.24h159.84l13.32-84.38q30.435,47.58,74.84,72.64,44.385,25.065,104.65,25.06,129.39,0,197.89-91.99t68.5-245.542V863.7Zm-184.57,13.324q0,92.641-28.54,143.072t-100.21,50.44q-43.77,0-73.89-16.5t-47.26-48.22V715.873q17.13-33.621,46.94-51.709t72.94-18.082q71.025,0,100.53,58.688,29.49,58.694,29.49,158.934v13.324ZM2468.83,580.1q-40.6-33.621-111.95-55.2t-151.27-21.572q-131.3,0-202.33,62.5T1932.24,714.6q0,83.749,61.84,132.287t182.99,73.281q79.92,17.13,109.73,39.337t29.81,52.661q0,34.905-29.5,55.2-29.49,20.31-85.94,20.3a261.586,261.586,0,0,1-59.62-6.66q-28.545-6.66-45.03-20.62l-25.37-89.461H1941.76l1.9,154.171q51.375,43.155,117.66,66.31,66.27,23.145,145.56,23.15,130.005,0,209.62-58.68,79.59-58.68,79.6-151.32,0-86.284-61.52-135.463-61.53-49.161-189.01-74.55-81.825-15.852-109.09-36.482-27.285-20.61-27.28-51.709,0-32.982,28.54-54.881t77.38-21.889q34.875,0,63.75,10.151,28.845,10.157,47.88,25.379l19.67,85.653h124.31Zm570.83,621.143h249.27V1090.21l-88.8-19.04v-859.7H2915.98V323.138l98.95,19.034V588.345q-31.08-41.235-72.31-63.764-41.235-22.514-92.6-22.523-127.485,0-197.89,99.611T2581.73,863.7v13.324q0,152.273,70.08,244.9t196.94,92.63q56.445,0,100.53-24.74t76.43-72.33ZM2766.93,863.7q0-97.074,31.08-157.348,31.065-60.268,98.95-60.274,39.945,0,69.45,18.082t48.52,51.075V1006.46q-19.035,31.1-48.84,47.58-29.82,16.515-70.4,16.5-68.505,0-98.63-51.71t-30.13-141.8V863.7Z"/>
  <path id="zbsd-bar" data-name="Top bar" class="medium cls-1" d="M507.969,211.687H993.75V323.469H507.969V211.687Zm995.041,0.306H2804v112H1503.01v-112Z"/>

  <path id="z-text" data-name="z" class="small cls-1" d="M2035.4,557.331V423.974H1344.73V718.637h178.65l8.77-114.192H1743.5L1332.76,1150.65V1288h717V994.135H1871.9l-9.57,115H1621.47Z"/>
  <rect id="z-bar" data-name="Top bar" class="small cls-1" x="1342.78" y="109" width="691.75" height="157"/>
</svg>
